<svg width="178" height="26" viewBox="0 0 178 26" fill="none" xmlns="http://www.w3.org/2000/svg">
<path d="M9.844 25C17.368 25 22.588 20.248 22.588 13.012C22.588 5.776 17.368 0.987998 9.844 0.987998H0.376V25H9.844ZM9.844 20.5H5.488V5.488H9.844C14.776 5.488 17.368 8.764 17.368 13.012C17.368 17.08 14.596 20.5 9.844 20.5ZM30.6798 25V13.516C31.4358 12.4 33.4518 11.536 34.9638 11.536C35.4678 11.536 35.8998 11.572 36.2238 11.644V7.18C34.0638 7.18 31.9038 8.44 30.6798 9.988V7.612H26.1078V25H30.6798ZM47.1445 25.432C52.9045 25.432 56.3605 21.256 56.3605 16.288C56.3605 11.356 52.9045 7.18 47.1445 7.18C41.4205 7.18 37.9645 11.356 37.9645 16.288C37.9645 21.256 41.4205 25.432 47.1445 25.432ZM47.1445 21.364C44.3005 21.364 42.7165 19.024 42.7165 16.288C42.7165 13.588 44.3005 11.248 47.1445 11.248C49.9885 11.248 51.6085 13.588 51.6085 16.288C51.6085 19.024 49.9885 21.364 47.1445 21.364ZM76.0604 25V12.724C76.0604 9.34 74.2244 7.18 70.4084 7.18C67.5644 7.18 65.4404 8.548 64.3244 9.88V7.612H59.7524V25H64.3244V13.3C65.0804 12.256 66.4844 11.248 68.2844 11.248C70.2284 11.248 71.4884 12.076 71.4884 14.488V25H76.0604ZM88.772 25.432C91.472 25.432 94.208 24.604 95.936 23.02L93.92 20.068C92.804 21.148 90.752 21.796 89.276 21.796C86.324 21.796 84.56 19.96 84.272 17.764H97.196V16.756C97.196 11.068 93.668 7.18 88.484 7.18C83.192 7.18 79.484 11.248 79.484 16.288C79.484 21.868 83.48 25.432 88.772 25.432ZM92.768 14.668H84.2C84.416 12.94 85.64 10.816 88.484 10.816C91.508 10.816 92.66 13.012 92.768 14.668ZM117.346 25V23.128H102.622L117.094 2.752V0.987998H100.03V2.86H114.502L100.03 23.2V25H117.346ZM129.408 25.432C134.556 25.432 137.796 21.364 137.796 16.288C137.796 11.212 134.556 7.18 129.408 7.18C124.332 7.18 121.056 11.212 121.056 16.288C121.056 21.364 124.332 25.432 129.408 25.432ZM129.408 23.74C125.376 23.74 123.072 20.176 123.072 16.288C123.072 12.436 125.376 8.872 129.408 8.872C133.512 8.872 135.78 12.436 135.78 16.288C135.78 20.176 133.512 23.74 129.408 23.74ZM156.239 25V12.832C156.239 8.908 154.295 7.18 150.767 7.18C148.247 7.18 145.763 8.728 144.503 10.24V7.612H142.631V25H144.503V11.86C145.619 10.276 147.923 8.872 150.155 8.872C152.675 8.872 154.367 9.88 154.367 13.228V25H156.239ZM169.776 25.432C172.656 25.432 174.852 24.424 176.58 22.624L175.608 21.4C174.132 22.984 172.116 23.812 169.92 23.812C165.816 23.812 163.296 20.68 163.116 16.9H177.66V16.396C177.66 11.392 174.744 7.18 169.452 7.18C164.628 7.18 161.064 11.248 161.064 16.288C161.064 21.652 164.7 25.432 169.776 25.432ZM175.752 15.424H163.116C163.26 12.4 165.312 8.8 169.416 8.8C173.772 8.8 175.716 12.472 175.752 15.424Z" fill="white"/>
</svg>
